# xmcd
#
# Track frame offsets: 
#        150
#        13762
#        28835
#        43960
#        59957
#        78532
#        101882
#        120129
#        136627
#        155417
#        174067
#        192930
#        209792
#        223892
#        243242
#        264292
#        279405
#        294167
#        310430
#        326530
#
# Disc length: 4630 seconds
#
# Revision: 3
# Processed by: cddbd v1.5.2PL0 Copyright (c) Steve Scherf et al.
# Submitted via: ExactAudioCopy v0.99pb4
#
DISCID=28121414
DTITLE=Various Artist - Solid Gold Soul - 1973
DYEAR=1996
DGENRE=R&B
TTITLE0=O'Jays - Love Train
TTITLE1=Spinners - One Of A Kind (Love Affair)
TTITLE2=Isley Brothers - That Lady (Part 1)
TTITLE3=Timmy Thomas - Why Can't We Live Together
TTITLE4=War - The World Is A Ghetto
TTITLE5=Fred Wesley And The JB's - Doing It To Death Parts 1 And 2
TTITLE6=Marvin Gaye - Let's Get It On
TTITLE7=Manhattans - There's No Me Without You
TTITLE8=Bloodstone - Natural High
TTITLE9=Sylvia - Pillow Talk
TTITLE10=Barry White - I'm Gonna Love You Just A Little More Baby
TTITLE11=Harold Melvin And The Blue Notes - The Love I Lost (Part 1)
TTITLE12=Four Tops - Ain't No Woman (Like The One I Got)
TTITLE13=Al Green - Here I Am (Come And Take Me)
TTITLE14=Gladys Knight And The Pips - Midnight Train To Georgia
TTITLE15=Brighter Side Of Darkness - Love Jones
TTITLE16=Curtis Mayfield - Superfly
TTITLE17=Eddie Kendricks - Keep On Truckin' (Part 1)
TTITLE18=Aretha Franklin - Angel
TTITLE19=Dells - Give Your Baby A Standing Ovation
EXTD=
EXTT0=
EXTT1=
EXTT2=
EXTT3=
EXTT4=
EXTT5=
EXTT6=
EXTT7=
EXTT8=
EXTT9=
EXTT10=
EXTT11=
EXTT12=
EXTT13=
EXTT14=
EXTT15=
EXTT16=
EXTT17=
EXTT18=
EXTT19=
PLAYORDER=
